<svg xmlns="http://www.w3.org/2000/svg" viewBox="0 0 24 24" width="128" height="128" fill="none" stroke="#08b6a6" stroke-width="1.6" stroke-linecap="round" stroke-linejoin="round">
  <path d="M20 13.5c.3-1 .3-2.1 0-3.1a4 4 0 0 0-4-2.4h-1a3 3 0 0 0-3-3V4a2 2 0 1 0-4 0v1a3 3 0 0 0-3 3H4a4 4 0 0 0-4 4c0 2 1.5 5 6 5h12c2.8 0 4-1.3 4-4z"/>
  <circle cx="8" cy="9" r="1.2" fill="#08b6a6" stroke="none" />
  <circle cx="16" cy="9" r="1.2" fill="#08b6a6" stroke="none" />
  <circle cx="12" cy="14" r="1.2" fill="#08b6a6" stroke="none" />
</svg>
